<?xml version="1.0" standalone="no"?>
<!DOCTYPE svg PUBLIC "-//W3C//DTD SVG 20010904//EN"
 "http://www.w3.org/TR/2001/REC-SVG-20010904/DTD/svg10.dtd">
<svg version="1.0" xmlns="http://www.w3.org/2000/svg"
 width="500.000000pt" height="500.000000pt" viewBox="0 0 500.000000 500.000000"
 preserveAspectRatio="xMidYMid meet">

<g transform="translate(0.000000,500.000000) scale(0.100000,-0.100000)"
fill="#000000" stroke="none">
<path d="M4140 2755 c0 -123 -6 -155 -25 -125 -10 17 -82 31 -126 24 -49 -8
-106 -54 -125 -101 -41 -96 3 -215 90 -248 56 -21 113 -16 156 15 l30 21 0
-20 c0 -19 6 -21 55 -21 l55 0 0 295 0 295 -55 0 -55 0 0 -135z m-25 -220 c56
-55 17 -150 -61 -148 -113 3 -112 173 1 173 25 0 44 -8 60 -25z"/>
<path d="M2463 2870 c-92 -19 -172 -78 -218 -162 -24 -44 -29 -65 -29 -123 -1
-120 59 -210 173 -264 87 -40 237 -35 298 12 9 7 7 20 -12 57 l-25 49 -35 -14
c-83 -35 -194 -6 -239 62 -34 53 -41 101 -21 149 41 98 135 141 240 109 28 -8
51 -15 52 -15 2 0 14 23 28 50 l26 51 -37 15 c-32 13 -139 36 -154 33 -3 -1
-24 -5 -47 -9z"/>
<path d="M896 2818 c-31 -71 -206 -506 -206 -513 0 -3 29 -5 64 -5 l63 0 22
60 22 61 112 -3 111 -3 21 -55 21 -55 66 -3 65 -3 -115 286 -115 285 -54 0
-54 0 -23 -52z m113 -208 c17 -43 31 -82 31 -85 0 -3 -29 -5 -65 -5 -40 0 -65
4 -65 11 0 21 53 159 61 159 4 0 21 -36 38 -80z"/>
<path d="M2040 2850 c-53 -53 7 -143 72 -109 30 16 38 28 38 62 0 34 -32 67
-65 67 -14 0 -34 -9 -45 -20z"/>
<path d="M3675 2845 c-14 -13 -25 -33 -25 -45 0 -11 11 -32 25 -45 13 -14 34
-25 45 -25 29 0 70 44 70 74 0 28 -42 66 -72 66 -10 0 -30 -11 -43 -25z"/>
<path d="M1770 2715 c0 -63 -1 -65 -25 -65 -23 0 -25 -4 -25 -45 0 -41 2 -45
25 -45 25 0 25 -2 25 -77 0 -149 35 -198 133 -190 63 5 71 15 57 64 -11 34
-16 39 -36 35 -31 -6 -44 27 -44 109 l0 59 40 0 40 0 0 44 c0 44 0 45 -37 48
l-38 3 -3 63 -3 62 -54 0 -55 0 0 -65z"/>
<path d="M1455 2641 c-47 -25 -55 -26 -55 -6 0 12 -13 15 -55 15 l-55 0 0
-175 0 -175 58 0 59 0 2 112 c2 100 4 115 23 135 27 29 71 30 98 3 18 -18 20
-33 20 -135 l0 -115 60 0 60 0 0 123 c0 96 -4 129 -18 157 -34 67 -128 96
-197 61z"/>
<path d="M2885 2649 c-87 -21 -145 -89 -145 -173 0 -86 44 -146 129 -175 72
-24 157 -10 220 37 83 62 82 202 -2 273 -25 21 -109 50 -141 48 -12 -1 -39 -5
-61 -10z m120 -114 c34 -33 34 -93 1 -124 -35 -33 -93 -31 -123 4 -50 58 -13
145 62 145 25 0 44 -8 60 -25z"/>
<path d="M2030 2475 l0 -175 55 0 55 0 0 175 0 175 -55 0 -55 0 0 -175z"/>
<path d="M3182 2636 c2 -8 41 -87 88 -175 l85 -161 40 0 c39 0 41 2 70 58 17
31 59 110 94 175 l63 117 -67 0 -66 0 -45 -97 c-25 -53 -48 -92 -53 -87 -4 5
-22 43 -41 84 -18 41 -37 81 -43 88 -14 18 -130 17 -125 -2z"/>
<path d="M3667 2644 c-4 -4 -7 -83 -7 -176 l0 -168 60 0 60 0 -2 173 -3 172
-50 3 c-28 2 -54 0 -58 -4z"/>
</g>
</svg>
