<?xml version="1.0" standalone="no"?>
<!DOCTYPE svg PUBLIC "-//W3C//DTD SVG 20010904//EN"
 "http://www.w3.org/TR/2001/REC-SVG-20010904/DTD/svg10.dtd">
<svg version="1.0" xmlns="http://www.w3.org/2000/svg"
 width="500.000000pt" height="500.000000pt" viewBox="0 0 500.000000 500.000000"
 preserveAspectRatio="xMidYMid meet">

<g transform="translate(0.000000,500.000000) scale(0.100000,-0.100000)"
fill="#000000" stroke="none">
<path d="M2220 2606 l0 -256 55 0 55 0 0 95 0 95 58 0 c67 0 134 29 166 73 27
37 28 129 2 173 -34 57 -67 68 -208 72 l-128 4 0 -256z m212 153 c36 -19 35
-99 0 -118 -10 -5 -36 -11 -58 -13 l-39 -3 -3 64 c-4 87 0 95 45 86 21 -4 46
-11 55 -16z"/>
<path d="M1605 2795 c-53 -52 -16 -149 57 -149 67 0 109 49 94 109 -17 66
-103 89 -151 40z"/>
<path d="M1941 2796 c-25 -27 -31 -79 -12 -114 14 -27 71 -45 102 -33 59 22
79 89 42 139 -29 39 -99 43 -132 8z"/>
<path d="M2700 2651 c-74 -39 -102 -149 -59 -232 37 -73 156 -102 211 -52 19
17 20 17 33 0 8 -12 26 -17 59 -17 l46 0 -2 155 -3 155 -52 0 c-39 0 -53 -4
-53 -14 0 -11 -8 -10 -37 5 -47 24 -99 24 -143 0z m164 -90 c25 -25 24 -87 -2
-113 -25 -25 -86 -27 -113 -2 -25 23 -26 95 -1 116 36 32 82 32 116 -1z"/>
<path d="M3049 2623 c10 -21 42 -78 70 -126 28 -49 51 -95 51 -103 0 -9 -22
-57 -50 -108 -27 -51 -50 -95 -50 -99 0 -3 25 -5 55 -5 66 1 48 -22 200 271
l107 207 -60 0 -59 0 -36 -80 c-20 -44 -38 -80 -41 -80 -3 0 -24 36 -48 80
l-43 80 -58 0 -57 0 19 -37z"/>
<path d="M1944 2496 c-46 -46 -48 -104 -5 -147 58 -58 161 -26 161 51 0 29 -1
30 -46 30 -32 0 -44 -4 -42 -12 3 -7 14 -14 26 -16 27 -4 29 -28 3 -42 -30
-15 -48 -12 -71 12 -39 42 -15 118 39 118 15 0 32 -5 37 -10 8 -8 15 -6 23 4
10 11 8 17 -11 30 -37 26 -76 20 -114 -18z"/>
<path d="M1633 2495 c-90 -39 -62 -165 37 -165 96 0 123 129 34 166 -39 16
-31 17 -71 -1z"/>
</g>
</svg>
