<?xml version="1.0" standalone="no"?>
<!DOCTYPE svg PUBLIC "-//W3C//DTD SVG 20010904//EN"
 "http://www.w3.org/TR/2001/REC-SVG-20010904/DTD/svg10.dtd">
<svg version="1.0" xmlns="http://www.w3.org/2000/svg"
 width="500.000000pt" height="500.000000pt" viewBox="0 0 500.000000 500.000000"
 preserveAspectRatio="xMidYMid meet">

<g transform="translate(0.000000,500.000000) scale(0.100000,-0.100000)"
fill="#000000" stroke="none">
<path d="M752 2781 c-8 -4 -12 -19 -10 -32 2 -18 9 -24 28 -24 19 0 26 6 28
24 3 20 -11 41 -28 41 -3 0 -11 -4 -18 -9z"/>
<path d="M4490 2530 l0 -260 24 0 24 0 4 134 c3 127 4 136 27 160 30 32 76 46
116 34 51 -14 55 -29 55 -185 l0 -143 25 0 25 0 0 135 c0 189 -23 235 -118
235 -47 0 -74 -11 -109 -43 l-23 -20 0 106 0 107 -25 0 -25 0 0 -260z"/>
<path d="M248 2749 c-16 -9 -18 -32 -18 -244 0 -228 1 -235 20 -235 19 0 20 7
20 199 0 110 4 202 9 205 5 3 66 -86 137 -199 117 -188 130 -205 156 -205 l28
0 0 245 0 245 -25 0 -25 0 0 -190 c0 -108 -4 -190 -9 -190 -5 0 -24 24 -42 53
-92 151 -212 327 -223 327 -6 0 -19 -5 -28 -11z"/>
<path d="M3250 2740 c0 -17 8 -19 78 -22 l77 -3 3 -222 c2 -214 3 -223 22
-223 19 0 20 9 22 223 l3 222 78 3 c69 3 77 5 77 22 0 19 -8 20 -180 20 -172
0 -180 -1 -180 -20z"/>
<path d="M750 2455 c0 -178 1 -185 20 -185 19 0 20 7 20 185 0 178 -1 185 -20
185 -19 0 -20 -7 -20 -185z"/>
<path d="M937 2634 c-4 -4 -7 -88 -7 -186 l0 -178 25 0 25 0 0 118 c0 91 4
125 18 152 21 42 57 62 98 55 24 -4 33 -1 38 11 17 43 -84 43 -121 0 -28 -33
-31 -32 -35 1 -3 27 -26 41 -41 27z"/>
<path d="M1227 2634 c-4 -4 -7 -74 -7 -155 0 -139 1 -149 23 -174 43 -51 139
-51 187 0 26 28 40 25 40 -11 0 -17 5 -24 20 -24 19 0 20 7 20 186 l0 185 -22
-3 c-22 -3 -23 -7 -28 -139 -4 -97 -9 -141 -19 -153 -19 -23 -65 -46 -90 -46
-29 0 -69 20 -77 39 -5 9 -10 79 -13 155 -6 129 -13 161 -34 140z"/>
<path d="M1657 2634 c-4 -4 -7 -121 -7 -261 l0 -253 25 0 25 0 0 101 0 100 26
-20 c56 -44 149 -46 196 -4 83 73 74 269 -14 323 -57 35 -149 22 -189 -26 -13
-16 -14 -15 -19 12 -5 27 -28 43 -43 28z m235 -63 c31 -28 33 -33 36 -108 4
-97 -15 -135 -77 -154 -89 -26 -151 33 -151 144 0 97 40 147 117 147 33 0 50
-7 75 -29z"/>
<path d="M2141 2622 c-43 -21 -60 -47 -44 -63 9 -9 19 -6 43 15 25 20 42 26
80 26 54 0 80 -18 80 -54 0 -32 -16 -43 -91 -62 -113 -29 -139 -51 -139 -118
0 -92 132 -134 207 -65 18 17 27 20 30 11 9 -25 35 -42 64 -42 36 0 39 25 4
34 -25 6 -25 7 -25 119 0 138 -11 182 -50 202 -39 20 -117 19 -159 -3z m157
-214 c-6 -75 -35 -108 -99 -108 -65 0 -103 64 -66 114 10 13 108 47 161 55 4
0 6 -27 4 -61z"/>
<path d="M2490 2455 c0 -178 1 -185 20 -185 19 0 20 7 20 98 1 177 27 232 109
232 72 0 76 -9 79 -179 3 -141 5 -151 23 -151 18 0 19 8 19 108 0 167 26 222
104 222 23 0 46 -4 53 -8 24 -15 33 -67 33 -193 0 -122 1 -129 20 -129 19 0
20 7 20 156 l0 156 -30 30 c-29 28 -35 30 -87 26 -45 -4 -61 -10 -79 -31 -13
-15 -26 -27 -30 -27 -3 0 -19 14 -34 30 -44 47 -129 40 -172 -14 -18 -22 -16
-24 -33 29 -2 8 -11 15 -20 15 -13 0 -15 -26 -15 -185z"/>
<path d="M3761 2618 c-58 -39 -75 -71 -79 -147 -7 -116 37 -184 128 -201 63
-12 120 3 153 41 26 29 28 33 12 41 -12 8 -20 5 -31 -10 -19 -27 -77 -46 -119
-38 -18 4 -44 18 -59 32 -28 28 -45 89 -29 105 6 6 61 9 133 7 l122 -3 -4 63
c-3 54 -8 67 -36 94 -27 28 -40 33 -94 36 -53 3 -68 0 -97 -20z m157 -42 c12
-12 25 -39 29 -59 l6 -37 -112 0 c-123 0 -126 2 -95 63 35 68 119 84 172 33z"/>
<path d="M4175 2626 c-105 -46 -130 -229 -43 -313 55 -53 149 -61 213 -19 28
19 49 52 40 66 -10 17 -24 11 -54 -22 -26 -29 -36 -33 -79 -33 -78 0 -122 54
-122 150 0 96 42 145 123 145 40 0 54 -5 77 -29 24 -24 31 -26 41 -15 16 19 5
41 -33 64 -39 23 -117 26 -163 6z"/>
</g>
</svg>
