<?xml version="1.0" standalone="no"?>
<!DOCTYPE svg PUBLIC "-//W3C//DTD SVG 20010904//EN"
 "http://www.w3.org/TR/2001/REC-SVG-20010904/DTD/svg10.dtd">
<svg version="1.0" xmlns="http://www.w3.org/2000/svg"
 width="500.000000pt" height="500.000000pt" viewBox="0 0 500.000000 500.000000"
 preserveAspectRatio="xMidYMid meet">

<g transform="translate(0.000000,500.000000) scale(0.100000,-0.100000)"
fill="#000000" stroke="none">
<path d="M3560 2530 l0 -260 25 0 25 0 0 125 c0 171 22 208 121 208 71 0 79
-18 79 -189 l0 -144 25 0 25 0 0 128 c0 187 -17 228 -99 239 -52 7 -83 -1
-120 -33 l-31 -26 0 106 0 106 -25 0 -25 0 0 -260z"/>
<path d="M508 2730 l-28 -29 0 -215 0 -216 25 0 25 0 0 206 c0 128 4 204 10
202 5 -1 65 -93 133 -203 106 -172 127 -200 150 -203 l27 -3 0 245 c0 239 -1
246 -20 246 -19 0 -20 -7 -20 -190 0 -156 -3 -190 -14 -190 -8 0 -17 7 -20 15
-9 24 -216 343 -229 353 -8 7 -21 1 -39 -18z"/>
<path d="M1010 2516 l0 -246 25 0 25 0 0 207 c0 141 3 204 10 197 6 -6 35 -80
65 -165 93 -261 84 -241 113 -237 25 3 31 16 98 203 39 110 75 200 80 200 5 0
10 -91 12 -202 2 -195 3 -203 22 -203 19 0 20 8 20 246 l0 245 -37 -3 -37 -3
-72 -200 c-88 -241 -80 -221 -88 -214 -4 4 -40 98 -80 210 l-74 204 -41 3 -41
3 0 -245z"/>
<path d="M3190 2749 c-76 -30 -130 -127 -130 -234 0 -156 82 -247 220 -246 75
0 129 28 159 82 21 37 21 38 2 48 -16 9 -21 7 -26 -8 -3 -11 -22 -34 -41 -50
-30 -27 -42 -31 -93 -31 -68 0 -113 25 -145 80 -17 28 -21 52 -21 125 0 103
17 143 75 182 61 42 175 26 214 -28 16 -23 46 -20 46 4 0 18 -49 63 -83 76
-35 14 -143 13 -177 0z"/>
<path d="M4400 2681 c0 -37 -2 -40 -32 -43 -21 -2 -33 -8 -33 -18 0 -10 12
-16 33 -18 l32 -3 0 -132 c0 -86 5 -141 13 -157 26 -52 148 -60 155 -11 3 20
1 22 -15 16 -39 -17 -60 -16 -83 3 -24 19 -25 26 -28 151 l-4 131 66 0 c51 0
66 3 66 15 0 10 -16 15 -62 17 l-63 3 -3 43 c-3 34 -7 42 -23 42 -16 0 -19 -7
-19 -39z"/>
<path d="M1690 2618 c-63 -43 -75 -70 -75 -166 0 -75 3 -92 23 -120 27 -38 53
-53 105 -63 70 -12 167 26 167 67 0 23 -21 27 -36 6 -19 -27 -77 -46 -119 -38
-18 4 -44 18 -59 32 -26 27 -43 84 -31 103 4 7 53 11 131 11 l124 0 0 45 c0
91 -54 145 -146 145 -37 0 -60 -6 -84 -22z m157 -41 c13 -13 26 -40 30 -60 l6
-37 -112 0 c-124 0 -126 1 -94 67 30 64 121 80 170 30z"/>
<path d="M2037 2634 c-4 -4 -7 -88 -7 -186 l0 -178 25 0 25 0 0 120 c0 131 12
180 50 200 35 19 87 16 110 -5 18 -17 20 -30 20 -167 l0 -148 25 0 25 0 0 128
c0 108 3 132 20 159 33 55 123 64 149 14 6 -11 11 -80 11 -160 l0 -141 25 0
25 0 0 140 c0 197 -17 230 -120 230 -29 0 -48 -8 -73 -30 -42 -36 -51 -37 -65
-5 -22 47 -123 47 -172 0 l-28 -27 -4 28 c-3 28 -26 43 -41 28z"/>
<path d="M2735 2621 c-16 -10 -37 -27 -46 -37 -61 -72 -46 -243 26 -290 36
-24 99 -33 148 -22 62 14 108 64 76 83 -5 4 -21 -5 -33 -18 -29 -32 -83 -43
-131 -27 -43 14 -67 48 -69 98 l-1 37 128 3 127 3 0 47 c0 59 -16 90 -59 119
-43 29 -122 31 -166 4z m143 -34 c17 -14 42 -68 42 -92 0 -13 -18 -15 -111
-15 l-111 0 6 32 c3 18 13 42 21 55 27 40 115 52 153 20z"/>
<path d="M4045 2629 c-63 -36 -66 -39 -55 -60 11 -19 12 -19 41 6 30 24 57 31
109 26 35 -3 50 -19 50 -52 0 -36 -26 -53 -104 -69 -81 -16 -116 -51 -116
-113 0 -28 7 -53 18 -66 36 -46 148 -45 185 1 l19 23 20 -28 c14 -19 29 -27
49 -27 35 0 39 21 7 35 -22 10 -23 17 -28 147 -6 169 -13 180 -112 185 -35 2
-72 -2 -83 -8z m155 -186 c0 -84 -44 -143 -107 -143 -48 0 -70 15 -78 50 -10
44 15 77 67 90 24 6 54 15 68 20 43 14 50 11 50 -17z"/>
</g>
</svg>
