<?xml version="1.0" standalone="no"?>
<!DOCTYPE svg PUBLIC "-//W3C//DTD SVG 20010904//EN"
 "http://www.w3.org/TR/2001/REC-SVG-20010904/DTD/svg10.dtd">
<svg version="1.0" xmlns="http://www.w3.org/2000/svg"
 width="500.000000pt" height="500.000000pt" viewBox="0 0 500.000000 500.000000"
 preserveAspectRatio="xMidYMid meet">

<g transform="translate(0.000000,500.000000) scale(0.100000,-0.100000)"
fill="#000000" stroke="none">
<path d="M2180 2595 l0 -295 55 0 c42 0 55 3 55 15 0 19 3 19 47 -5 49 -26 98
-25 153 3 60 30 90 82 90 160 0 67 -15 102 -64 145 -49 43 -108 51 -171 23
-26 -12 -49 -21 -51 -21 -2 0 -4 61 -4 135 l0 135 -55 0 -55 0 0 -295z m255
-60 c79 -78 -39 -201 -120 -125 -56 53 -17 150 60 150 25 0 44 -8 60 -25z"/>
<path d="M1856 2646 c-43 -16 -91 -58 -112 -98 -20 -38 -18 -117 5 -158 57
-107 225 -132 318 -46 l35 32 -41 19 c-40 18 -44 18 -71 2 -59 -35 -140 -10
-140 43 0 19 7 20 124 20 69 0 127 4 131 9 9 15 -12 92 -32 120 -42 55 -146
83 -217 57z m122 -83 c26 -35 15 -43 -58 -43 -79 0 -90 13 -43 50 32 25 79 21
101 -7z"/>
<path d="M2760 2645 c-83 -28 -130 -89 -130 -168 0 -87 39 -143 119 -172 106
-37 233 2 276 85 23 44 19 125 -7 172 -44 77 -161 115 -258 83z m135 -110 c54
-53 17 -147 -59 -147 -52 0 -86 33 -86 84 0 52 35 88 85 88 25 0 44 -8 60 -25z"/>
<path d="M3649 2650 c-75 -22 -119 -87 -119 -175 0 -70 21 -117 68 -153 48
-37 141 -39 190 -4 32 23 32 23 32 3 0 -19 6 -21 55 -21 l55 0 0 175 0 175
-55 0 c-42 0 -55 -3 -55 -15 0 -19 1 -19 -51 5 -46 21 -77 23 -120 10z m146
-115 c54 -53 17 -147 -59 -147 -52 0 -86 33 -86 84 0 52 35 88 85 88 25 0 44
-8 60 -25z"/>
<path d="M1020 2645 c0 -3 41 -82 91 -176 l91 -170 40 3 c39 3 39 3 77 88 21
47 42 84 47 82 5 -1 25 -39 45 -85 36 -81 36 -82 76 -85 l39 -3 92 170 c51 93
92 172 92 175 0 3 -29 6 -64 6 l-63 0 -41 -92 c-22 -51 -44 -94 -49 -95 -4 -1
-26 39 -48 90 -39 87 -42 92 -74 95 -19 2 -38 -1 -44 -7 -5 -5 -26 -46 -46
-91 -21 -45 -42 -80 -47 -79 -5 2 -24 37 -43 78 -19 42 -38 82 -44 89 -9 12
-127 18 -127 7z"/>
<path d="M3126 2523 c125 -239 114 -223 159 -223 l40 0 85 161 c47 88 86 167
88 175 3 11 -10 14 -61 14 l-64 0 -38 -87 c-21 -49 -42 -92 -46 -97 -5 -5 -28
34 -53 87 l-45 97 -66 0 -67 0 68 -127z"/>
</g>
</svg>
