<svg width="196" height="40" viewBox="0 0 196 40" fill="none" xmlns="http://www.w3.org/2000/svg">
<g clip-path="url(#clip0)">
<path d="M5.43277 5.50134H9.6707C13.544 5.50134 15.2509 6.72527 15.2509 9.21148C15.2509 11.372 13.544 12.8391 10.1179 12.8391H5.43277V5.50134ZM0.299805 29.9474H10.6866C16.1452 29.9474 21.6039 27.9975 21.6039 21.7205C21.6039 18.0104 19.0026 15.1621 15.3776 14.75V14.6642C18.3435 13.7757 20.389 11.6158 20.389 8.35544C20.389 3.09833 15.9021 1.10352 11.5427 1.10352H0.299805V29.9474ZM5.43277 17.2369H10.361C14.5157 17.2369 16.478 18.2977 16.478 21.3149C16.478 25.0985 12.803 25.5496 10.1562 25.5496H5.43277V17.2369Z" fill="#9CA4AE"/>
<path d="M27.4082 29.9483V0.423828" stroke="#9CA4AE" stroke-width="4.87492" stroke-miterlimit="10"/>
<path d="M38.0066 20.1709C38.0066 17.1153 40.1671 14.3067 43.7531 14.3067C47.3391 14.3067 49.4932 17.1159 49.4932 20.1709C49.4932 23.2258 47.3391 26.0357 43.7531 26.0357C40.1665 26.0357 38.0066 23.2265 38.0066 20.1709ZM33.1167 20.1709C33.1167 26.323 37.8402 30.4336 43.7531 30.4336C49.6589 30.4336 54.3895 26.3237 54.3895 20.1709C54.3895 14.0181 49.6596 9.90234 43.7531 9.90234C37.8402 9.90169 33.1167 14.0187 33.1167 20.1709Z" fill="#9CA4AE"/>
<path d="M61.4836 20.1709C61.4836 17.1153 63.6442 14.3067 67.2302 14.3067C70.8162 14.3067 72.9702 17.1159 72.9702 20.1709C72.9702 23.2258 70.8162 26.0357 67.2302 26.0357C63.6442 26.0357 61.4836 23.2265 61.4836 20.1709ZM56.5938 20.1709C56.5938 26.323 61.3179 30.4336 67.2302 30.4336C73.136 30.4336 77.8666 26.3237 77.8666 20.1709C77.8666 14.0181 73.1366 9.90234 67.2302 9.90234C61.3172 9.90169 56.5938 14.0187 56.5938 20.1709Z" fill="#9CA4AE"/>
<path d="M80.8447 10.3924H85.4915V13.4513H85.5682C86.4249 11.617 88.2975 9.90039 91.5572 9.90039C94.5745 9.90039 96.6583 11.0795 97.6742 13.528C99.0997 11.0476 101.177 9.90039 104.105 9.90039C109.32 9.90039 111.156 13.6138 111.156 18.2996V29.9493H106.266V18.8683C106.266 16.4263 105.537 14.3073 102.641 14.3073C99.5865 14.3073 98.4419 16.8319 98.4419 19.3538V29.9487H93.5585V18.2989C93.5585 15.8887 92.5803 14.3073 90.2156 14.3073C87.0001 14.3073 85.7346 16.6629 85.7346 19.2739V29.9487H80.8447V10.3924Z" fill="#9CA4AE"/>
<path d="M131.335 20.1718C131.335 23.2306 129.181 26.0367 125.589 26.0367C122.002 26.0367 119.842 23.2306 119.842 20.1718C119.842 17.1162 122.002 14.3004 125.589 14.3004C129.181 14.3004 131.335 17.1162 131.335 20.1718ZM115.119 29.9483H119.766V27.0168H119.842C121.274 29.3724 123.837 30.4338 126.572 30.4338C132.594 30.4338 136.225 25.9528 136.225 20.1712C136.225 14.3862 132.351 9.90262 126.771 9.90262C123.108 9.90262 121.146 11.6095 120.13 12.8815H120.008V0.423828H115.118V29.9483H115.119Z" fill="#9CA4AE"/>
<path d="M143.326 18.2151C143.691 15.3993 145.487 13.5683 148.376 13.5683C151.432 13.5683 153.304 15.3616 153.349 18.2151H143.326ZM158.239 21.881V20.5388C158.239 13.7314 154.532 9.90234 149.073 9.90234C143.154 9.90234 138.437 14.0187 138.437 20.1709C138.437 26.323 143.154 30.4336 149.073 30.4336C152.16 30.4336 155.062 29.3344 157.338 26.5278L153.835 23.8849C152.614 25.3844 151.022 26.5278 148.58 26.5278C145.852 26.5278 143.646 24.7734 143.326 21.881H158.239Z" fill="#9CA4AE"/>
<path d="M161.422 10.3924H166.312V13.4896H166.395C167.456 11.2491 169.61 9.90039 172.179 9.90039C172.793 9.90039 173.362 10.0252 173.93 10.1909V14.9151C173.119 14.7136 172.339 14.5504 171.565 14.5504C166.963 14.5504 166.311 18.4237 166.311 19.4851V29.9493H161.421V10.3924H161.422Z" fill="#9CA4AE"/>
<path d="M184.869 14.3073C188.41 14.3073 190.653 16.6629 190.653 20.0532C190.653 23.3071 188.454 25.7933 184.83 25.7933C181.532 25.7933 179.084 23.2271 179.084 20.1299C179.084 16.6629 181.442 14.3073 184.869 14.3073ZM190.653 10.3924V13.3265H190.577C189.145 10.9612 186.576 9.90039 183.847 9.90039C177.819 9.90039 174.194 14.384 174.194 20.1722C174.194 25.7075 178.068 30.1918 183.93 30.1918C186.378 30.1918 188.902 29.2584 190.335 27.3442H190.404V28.7728C190.404 32.6396 188.947 35.3312 184.217 35.3312C181.488 35.3312 179.448 34.3081 177.492 32.5057L174.565 36.5064C177.326 38.9608 180.631 39.7284 184.261 39.7284C191.881 39.7284 195.3 35.2415 195.3 28.1969V10.3924H190.653Z" fill="#9CA4AE"/>
</g>
<defs>
<clipPath id="clip0">
<rect width="195" height="39.3042" fill="white" transform="translate(0.299805 0.423828)"/>
</clipPath>
</defs>
</svg>
