<svg width="196" height="56" viewBox="0 0 196 56" fill="none" xmlns="http://www.w3.org/2000/svg">
<path d="M70.0269 15.2949H83.1501L85.8731 29.2231L88.8425 15.2949H101.616V20.405H99.3445V34.8339H101.616V39.9445H90.5609V34.8339H92.4402V20.6533L87.6897 39.9445H81.9635L77.4236 20.405V34.8339H79.3648V39.9445H70.0269V34.8339H72.2616V20.405H70.0269V15.2949Z" fill="#9CA4AE"/>
<path d="M139.78 34.8341H141.281V39.9446H133.283V28.3993C133.283 26.9979 132.649 26.3992 131.642 26.3992C130.476 26.3992 129.467 27.5442 129.415 29.1442V34.8343H131.244V39.9449H121.486V34.8343H122.954V26.6685H121.486V21.5564H128.751V24.9764C130.082 22.7298 132.116 21.1641 134.816 21.1641C138.347 21.1641 139.693 23.1923 139.779 26.4545V34.8341" fill="#9CA4AE"/>
<path d="M152.926 28.689C153.023 27.3422 152.545 25.6805 150.725 25.6805C148.632 25.6805 148.559 27.8903 148.559 28.689H152.926ZM159.142 33.6248C158.537 38.0654 155.415 40.4056 150.798 40.4056C145.975 40.4056 141.751 37.9913 141.751 30.8225C141.751 26.259 143.775 21.1641 150.551 21.1641C157.327 21.1641 159.744 25.9153 159.385 31.9931H148.388C148.388 33.4119 148.621 35.9326 150.895 35.9326C152.778 35.9326 153.225 34.2998 153.332 33.6248H159.142Z" fill="#9CA4AE"/>
<path d="M108.777 30.7843C108.777 31.9275 108.777 35.444 111.358 35.444C113.942 35.444 113.942 31.9278 113.942 30.7843C113.942 29.6434 113.942 26.1275 111.358 26.1275C108.777 26.1275 108.777 29.6437 108.777 30.7843ZM102.14 30.7843C102.14 24.932 105.144 21.1641 111.358 21.1641C117.575 21.1641 120.579 24.932 120.579 30.7843C120.579 36.64 117.575 40.4056 111.358 40.4056C105.143 40.4056 102.14 36.6403 102.14 30.7843Z" fill="#9CA4AE"/>
<path d="M168.988 21.5566V26.6688H167.521L170 34.6203L172.305 26.6688H170.77V21.5566H179.55V26.6688H178.014L173.09 40.2384C170.97 46.1066 168.671 47.7189 164.489 47.7189C162.743 47.7189 161.655 47.4363 160.711 47.2225V42.1442C161.713 42.3556 162.62 42.5233 163.491 42.5233C164.704 42.5233 165.666 42.1642 166.154 41.0416C166.293 40.7569 166.269 40.7969 166.376 40.5135L161.241 26.6688H159.705V21.5566H168.988Z" fill="#9CA4AE"/>
<path d="M19.563 27.6284C19.5656 31.5104 22.1749 35.6938 27.8989 35.6938H35.0377C35.3463 35.6938 35.6094 35.4393 35.6094 35.1257V20.1016C35.6068 19.2153 36.0564 18.5208 36.7838 18.285C37.4879 18.0578 38.2606 18.3461 38.7344 19.0458C38.7344 19.0458 48.8242 35.5311 48.8242 35.5337C48.9414 35.699 49.0787 35.7526 49.1614 35.7243C49.2586 35.691 49.3587 35.5319 49.3572 35.2227V20.105C49.3561 19.2208 49.8039 18.5234 50.5298 18.2886C51.2336 18.0622 52.0048 18.3505 52.4793 19.0502C54.4872 22.3837 62.508 35.4357 62.5683 35.5363C62.6741 35.6832 62.815 35.7625 62.9271 35.7274C63.0532 35.685 63.1341 35.4965 63.1341 35.2271V15.2927H60.3614V26.923C60.3614 26.923 58.5289 23.7726 55.4045 18.3097C52.3448 12.9706 46.5731 15.1845 46.5731 19.7798V26.9191C46.5731 26.9191 44.7843 23.7679 41.6596 18.3076C38.601 12.9667 32.8181 15.1801 32.8181 19.7753V32.0728C32.8191 32.5187 32.4975 32.9126 32.0227 32.9126H28.24C20.0554 32.9225 20.7863 22.2737 27.753 22.2638C30.8475 22.2601 31.934 22.2638 31.934 22.2638V19.4779H27.6027C22.073 19.4857 19.5604 23.7089 19.563 27.6284Z" fill="#9CA4AE"/>
<path d="M64.4794 15.2927V35.2253C64.482 36.1192 64.0446 36.8152 63.332 37.0375C62.6487 37.2565 61.9171 36.9746 61.4415 36.2968C61.3599 36.1634 53.3371 23.1062 51.3501 19.793C51.2162 19.5952 51.0433 19.5642 50.938 19.5996C50.7896 19.6454 50.7051 19.8346 50.7051 20.104V35.2227C50.7087 36.2934 50.1209 36.8633 49.5663 37.0347C48.8944 37.2539 48.1703 36.9684 47.6969 36.2919C47.6969 36.2919 37.6063 19.793 37.6063 19.7878C37.4706 19.5908 37.2974 19.5614 37.1905 19.5952C37.041 19.6438 36.956 19.8276 36.956 20.0978V35.1255C36.956 36.2024 36.0954 37.0672 35.0377 37.0672H27.8989C21.2502 37.0672 18.2186 32.1755 18.215 27.6297C18.2113 22.9013 21.433 18.1111 27.6004 18.1038H31.9336V15.2891H28.1402C11.1248 15.2891 11.2883 39.9131 28.3661 39.9256H35.0437C37.9128 39.9256 39.7599 38.2026 39.7565 35.009V28.7688C39.7565 28.7688 43.4994 35.0758 44.9718 37.5464C47.4699 41.7474 53.5159 40.9204 53.5003 35.6668V28.7729C53.5003 28.7729 57.2441 35.0782 58.7157 37.5487C61.2145 41.749 67.2608 40.9227 67.2455 35.6702V15.2927H64.4794Z" fill="#9CA4AE"/>
</svg>
