<svg width="196" height="36" viewBox="0 0 196 36" fill="none" xmlns="http://www.w3.org/2000/svg">
<path d="M26.8455 1.65234L20.2063 19.2348L13.5275 1.65234H2.1084V33.5186H10.3263V12.4516L18.3955 33.5186H22.0216L30.0468 12.4516V33.5186H38.2646V1.65234H26.8455Z" fill="#9CA4AE"/>
<mask id="mask0" mask-type="alpha" maskUnits="userSpaceOnUse" x="39" y="7" width="24" height="28">
<path d="M39.5146 7.82812H62.7289V34.0904H39.5146V7.82812Z" fill="white"/>
</mask>
<g mask="url(#mask0)">
<path d="M54.9296 27.5979V25.5388C54.1682 24.4407 52.4457 23.9138 50.83 23.9138C48.9171 23.9138 47.1482 24.7774 47.1482 26.5904C47.1482 28.4034 48.9171 29.267 50.83 29.267C52.4457 29.267 54.1682 28.6936 54.9296 27.5956V27.5979ZM54.9296 33.5175V31.224C53.4973 32.9395 50.7302 34.0909 47.7657 34.0909C44.2302 34.0909 39.8403 31.6511 39.8403 26.4906C39.8403 20.9052 44.2278 19.0457 47.7657 19.0457C50.83 19.0457 53.5507 20.044 54.9296 21.7665V19.4729C54.9296 17.4672 53.2164 16.0813 50.2496 16.0813C47.956 16.0813 45.6625 16.9866 43.803 18.5652L41.0823 13.4511C44.0468 10.9207 48.0094 9.86914 51.538 9.86914C57.0793 9.86914 62.2932 11.9282 62.2932 19.0922V33.5199H54.9296V33.5175Z" fill="#9CA4AE"/>
</g>
<mask id="mask1" mask-type="alpha" maskUnits="userSpaceOnUse" x="62" y="7" width="24" height="28">
<path d="M62.729 7.82812H85.9433V34.0904H62.729V7.82812Z" fill="white"/>
</mask>
<g mask="url(#mask1)">
<path d="M63.2905 30.509L66.3479 25.2579C68.0704 26.7807 71.7429 28.3593 74.4729 28.3593C76.6666 28.3593 77.5743 27.7325 77.5743 26.7343C77.5743 23.8697 64.1541 26.8272 64.1541 17.4672C64.1541 13.4047 67.6896 9.86914 74.0364 9.86914C77.955 9.86914 81.2003 11.1111 83.6866 12.9241L80.8754 18.1404C79.4871 16.7963 76.8593 15.6007 74.0921 15.6007C72.3696 15.6007 71.2252 16.2716 71.2252 17.1793C71.2252 19.7097 84.592 17.0865 84.592 26.5463C84.592 30.9338 80.7291 34.0909 74.1362 34.0909C69.9832 34.0909 65.7327 32.7027 63.2905 30.509Z" fill="#9CA4AE"/>
</g>
<mask id="mask2" mask-type="alpha" maskUnits="userSpaceOnUse" x="85" y="1" width="25" height="34">
<path d="M85.9434 1.65234H109.158V34.0897H85.9434V1.65234Z" fill="white"/>
</mask>
<g mask="url(#mask2)">
<path d="M101.649 33.5186V20.0845C101.649 17.2756 100.171 16.3679 97.8214 16.3679C95.6741 16.3679 94.2418 17.5565 93.3875 18.6081V33.5163H86.0239V1.65234H93.3875V13.2595C94.7664 11.6345 97.4964 9.8702 101.359 9.8702C106.62 9.8702 109.004 12.8323 109.004 17.0852V33.5186H101.649Z" fill="#9CA4AE"/>
</g>
<mask id="mask3" mask-type="alpha" maskUnits="userSpaceOnUse" x="109" y="7" width="26" height="28">
<path d="M109.157 7.82812H134.692V34.0904H109.157V7.82812Z" fill="white"/>
</mask>
<g mask="url(#mask3)">
<path d="M125.58 27.5979V25.5388C124.816 24.4407 123.096 23.9138 121.471 23.9138C119.558 23.9138 117.789 24.7774 117.789 26.5904C117.789 28.4034 119.558 29.267 121.471 29.267C123.096 29.267 124.816 28.6936 125.58 27.5956V27.5979ZM125.58 33.5175V31.224C124.145 32.9395 121.371 34.0909 118.416 34.0909C114.878 34.0909 110.481 31.6511 110.481 26.4906C110.481 20.9052 114.878 19.0457 118.416 19.0457C121.471 19.0457 124.191 20.044 125.58 21.7665V19.4729C125.58 17.4672 123.855 16.0813 120.9 16.0813C118.606 16.0813 116.31 16.9866 114.444 18.5652L111.723 13.4511C114.687 10.9207 118.65 9.86914 122.188 9.86914C127.727 9.86914 132.931 11.9282 132.931 19.0922V33.5199H125.58V33.5175Z" fill="#9CA4AE"/>
</g>
<mask id="mask4" mask-type="alpha" maskUnits="userSpaceOnUse" x="134" y="1" width="27" height="34">
<path d="M134.693 1.65234H160.229V34.0897H134.693V1.65234Z" fill="white"/>
</mask>
<g mask="url(#mask4)">
<path d="M147.07 27.5966C149.981 27.5966 152.184 25.4377 152.184 21.9556C152.184 18.5198 149.981 16.3609 147.07 16.3609C145.491 16.3609 143.588 17.2222 142.673 18.4641V25.5375C143.588 26.7795 145.494 27.5966 147.07 27.5966ZM135.319 33.5163V1.65234H142.673V13.1666C143.481 12.1268 144.519 11.2882 145.705 10.7163C146.891 10.1444 148.193 9.8548 149.51 9.8702C155.285 9.8702 159.685 14.4109 159.685 21.9556C159.685 29.7904 155.195 34.0897 149.51 34.0897C146.926 34.0897 144.586 33.0381 142.673 30.842V33.5186H135.319V33.5163Z" fill="#9CA4AE"/>
</g>
<mask id="mask5" mask-type="alpha" maskUnits="userSpaceOnUse" x="160" y="1" width="10" height="34">
<path d="M160.229 1.65234H169.515V34.0897H160.229V1.65234Z" fill="white"/>
</mask>
<g mask="url(#mask5)">
<path d="M161.163 1.65234H168.517V33.5186H161.163V1.65234Z" fill="#9CA4AE"/>
</g>
<mask id="mask6" mask-type="alpha" maskUnits="userSpaceOnUse" x="169" y="7" width="26" height="28">
<path d="M169.514 7.82812H194.026V34.0904H169.514V7.82812Z" fill="white"/>
</mask>
<g mask="url(#mask6)">
<path d="M182.229 15.7911C179.025 15.7911 177.786 17.704 177.493 19.3731H187.007C186.809 17.7481 185.621 15.7911 182.229 15.7911ZM169.995 21.9568C169.995 15.2734 175.009 9.86914 182.229 9.86914C189.056 9.86914 194.027 14.8834 194.027 22.7182V24.3966H177.595C178.12 26.4465 180.033 28.169 183.371 28.169C184.996 28.169 187.67 27.4516 189.012 26.2097L192.204 31.0336C189.918 33.0834 186.092 34.0909 182.563 34.0909C175.446 34.0909 169.995 29.4574 169.995 21.9568Z" fill="#9CA4AE"/>
</g>
</svg>
