<svg width="196" height="36" viewBox="0 0 196 36" fill="none" xmlns="http://www.w3.org/2000/svg">
<g clip-path="url(#clip0)">
<path d="M12.8628 9.09847H8.84714L8.86979 4.81076L2.92591 5.69541V9.00775L0.226074 9.41604V12.0478H3.01652L2.99387 23.5956C3.01343 24.011 3.6805 27.7583 7.7354 27.5203C12.335 27.2507 12.7267 26.7265 13.1349 26.454C13.1025 26.4877 13.1349 24.2081 13.1349 24.2081L10.6393 24.2763C10.6393 24.2763 9.23279 24.1855 9.00582 22.62C8.99701 22.6211 8.96051 12.0931 8.96051 12.0931L12.8628 12.1158V9.09847ZM21.5008 0.914062L13.4752 2.0655L13.4866 3.59686L15.6192 4.54981L15.6418 24.5937L13.6227 25.3878L13.6454 27.0325L23.4915 27.0438V25.4104L21.5064 24.5482L21.5179 12.6942C21.5179 12.6942 22.6409 12.1952 24.1948 12.1952C25.7488 12.1952 26.4635 13.1934 26.4635 13.806V24.5824L24.6485 25.3877V27.0439H34.4719V25.456L32.4528 24.4689V12.32C32.4528 12.32 32.4983 8.4632 28.0288 8.65597C25.3096 8.67233 23.3836 9.52941 21.4894 11.0268C21.4894 11.0212 21.4894 0.925388 21.5008 0.914063V0.914062ZM51.4352 18.547C51.6631 14.5922 51.2496 8.28668 43.2695 8.66501C35.4497 9.03566 34.4624 15.0175 34.5106 18.8838C34.96 25.1309 38.1812 27.4533 44.2322 27.5467C49.0128 27.3862 50.7452 24.8677 50.7452 24.8677V23.1753C50.7452 23.1753 48.4992 23.849 46.1412 23.8328C40.5587 23.7948 40.6227 18.547 40.6227 18.547H51.4352ZM40.6066 16.4455C40.6066 16.4455 40.5736 13.8963 41.082 12.2775C41.4875 10.9858 42.3078 10.5594 43.2536 10.558C44.8291 10.5556 45.223 11.4391 45.4001 12.5245C45.655 14.0864 45.613 16.2036 45.5957 16.2209L40.6066 16.4455Z" fill="#9CA4AE"/>
<path d="M66.5848 23.1647H59.461C59.461 23.1647 58.3948 23.0512 58.3493 21.9621C58.3039 20.873 59.0753 20.601 59.0753 20.601C59.0753 20.601 60.5955 21.0548 62.1835 21.0548C63.7714 21.0548 70.0105 20.3968 70.0105 14.9974C70.0105 12.5445 68.0823 11.1406 68.0823 11.1406L71.5321 12.0649L71.4739 8.52048L66.4941 9.43923C66.4941 9.43923 63.9079 8.49783 62.0701 8.49783C60.8337 8.49783 54.4583 8.98792 54.2258 14.5851C54.0616 18.5367 57.3966 20.0113 57.3741 20.0113C57.3513 20.0113 54.1978 21.9624 54.1751 24.3899C54.1533 26.7271 56.8222 27.4448 57.0207 27.4949C57.0292 27.4952 57.0337 27.4962 57.0335 27.4981L57.0207 27.4949C56.7646 27.4872 52.6773 28.2552 52.6777 31.1281C52.6781 33.8732 57.2152 35.2117 62.0248 35.2344C66.8344 35.2571 72.1205 33.8958 72.1205 28.2014C72.1205 22.507 66.5848 23.1647 66.5848 23.1647ZM62.0248 10.653C64.2368 10.6416 64.2481 12.933 64.2595 13.8972V15.6102C64.2595 15.6102 64.5544 18.6957 62.2175 18.707C59.8809 18.7183 59.949 16.9147 59.949 15.6102V13.591C59.949 13.591 59.813 10.6643 62.0248 10.653ZM62.0362 33.0564C58.7465 33.0564 57.567 31.7179 57.567 30.4248C57.567 29.1316 58.3723 28.5985 58.3723 28.5985L65.5074 28.5872C65.5074 28.5872 66.9255 28.7457 66.9255 29.9937C66.9253 31.9113 65.3258 33.0564 62.0362 33.0564ZM80.1289 8.62241L72.0977 9.87029V11.4357L74.1622 12.434V22.5297C74.1622 22.5297 74.2695 27.4875 79.1308 27.5436C83.0783 27.5889 85.052 24.8438 85.052 24.8438V27.4982L92.8336 26.5679V25.1388L90.8451 23.9908V8.66817L82.8514 9.91605V11.4134L84.9613 12.4796V23.2561C84.9613 23.2561 84.4169 23.7098 82.67 23.8458C80.9231 23.982 80.129 22.3259 80.129 22.3259L80.1289 8.62241ZM94.4755 9.91685C94.4755 9.91685 98.3096 8.52117 101.47 8.52117C104.63 8.52117 109.202 9.59595 109.202 13.5263V24.4189L111.159 25.4455V26.745C111.159 26.745 109.764 27.4989 107.71 27.4989C105.657 27.4989 103.876 26.4561 103.876 24.884C103.43 24.892 103.268 27.467 98.4541 27.467C92.8393 27.467 93.2725 22.4939 93.2725 22.3977C93.2725 22.3014 93.1109 18.6853 97.2028 17.9057C101.245 17.1358 103.122 16.831 103.122 16.831L103.103 13.1734C103.103 13.1734 102.769 10.9595 100.86 10.9755C98.9513 10.9916 98.9673 11.0077 98.9673 11.0077L97.6199 14.6813H94.4596L94.4755 9.91685ZM103.275 23.6248V18.684C103.275 18.684 99.2478 18.3231 99.2399 21.5474C99.2341 23.975 100.76 24.2585 101.454 24.2585C102.248 24.2077 102.775 23.9282 103.275 23.6248ZM119.373 8.45699L111.528 9.69216V11.3284L113.55 12.2909V24.4348L111.673 25.3973V26.9373H122.004V25.4614L119.534 24.4668L119.55 14.4405C119.55 14.4405 121.122 13.8148 122.71 13.8148C124.298 13.8148 125.084 13.9912 125.084 13.9912V8.74539C125.084 8.74539 121.722 7.69234 119.341 12.387C119.341 12.4033 119.373 8.45699 119.373 8.45699ZM134.918 2.4733V4.0614L136.891 5.00783V9.30721C136.891 9.30721 135.511 8.64941 133.843 8.64941C132.174 8.64941 125.356 8.90612 125.164 18.2748C124.971 27.6434 132.255 27.515 132.191 27.515C132.126 27.515 135.527 27.6113 137.067 25.622C137.059 25.622 137.051 27.507 137.051 27.507L144.76 26.5686V25.0445L142.907 24.0981L142.891 1.22222L134.918 2.4733ZM136.883 11.7618V23.9377C136.883 23.9377 136.247 24.2586 135.062 24.2586C133.135 24.2586 131.505 22.9475 131.517 18.724C131.527 15.0345 132.065 12.1357 133.679 11.3767C135.292 10.6179 136.808 11.6601 136.883 11.7618ZM153.544 4.20989C153.544 6.01958 152.075 7.48813 150.266 7.48813C148.456 7.48813 146.988 6.01958 146.988 4.20989C146.988 2.40031 148.456 0.931641 150.266 0.931641C152.075 0.931641 153.544 2.40019 153.544 4.20989ZM153.408 8.53169L145.263 9.68873V11.2542L147.396 12.2979V24.458L145.445 25.3428V26.9991H155.246V25.411L153.385 24.5033L153.408 8.53169ZM157.126 9.89671C157.126 9.89671 160.96 8.50115 164.121 8.50115C167.281 8.50115 171.853 9.57593 171.853 13.5063V24.3989L173.81 25.4256V26.7248C173.81 26.7248 172.414 27.479 170.361 27.479C168.308 27.479 166.527 26.4362 166.527 24.864C166.081 24.872 165.918 27.4468 161.105 27.4468C155.49 27.4468 155.923 22.4739 155.923 22.3775C155.923 22.2813 155.762 18.6652 159.853 17.8858C163.896 17.1158 165.773 16.8109 165.773 16.8109L165.753 13.1533C165.753 13.1533 165.42 10.9395 163.511 10.9556C161.602 10.9717 161.618 10.9876 161.618 10.9876L160.27 14.6612H157.11L157.126 9.89671ZM165.925 23.6047V18.6638C165.925 18.6638 161.899 18.3029 161.891 21.5273C161.885 23.9546 163.41 24.2384 164.104 24.2384C164.898 24.1877 165.426 23.9079 165.925 23.6047ZM182.107 8.48639L174.098 9.75692V11.2769L176.254 12.2979V24.5487L174.28 25.3428V27.0444H184.081V25.3655L182.266 24.5033V12.6608C182.266 12.6608 183.241 12.207 184.671 12.207C186.1 12.207 187.211 12.8423 187.211 14.2488V24.5033L185.201 25.4915L185.192 26.9988H195.174V25.3882L193.224 24.5715V13.2054C193.224 13.2054 193.36 8.66806 188.754 8.66806C184.149 8.66806 182.13 11.0955 182.13 11.0955L182.107 8.48639Z" fill="#9CA4AE"/>
</g>
<defs>
<clipPath id="clip0">
<rect width="195" height="34.32" fill="white" transform="translate(0.200195 0.914062)"/>
</clipPath>
</defs>
</svg>
