<svg width="157" height="38" viewBox="0 0 157 38" fill="none" xmlns="http://www.w3.org/2000/svg">
<g clip-path="url(#clip0)">
<path d="M68.5962 4.8255C65.9492 2.232 62.3568 0.75 58.5754 0.75H37.872V37.8H52.0524V14.6437H56.5901C57.8191 14.6437 59.0481 15.1069 59.8989 16.0331L64.8148 20.8496C65.6656 21.6833 66.2328 22.8874 66.2328 24.0915V37.8H80.4132V22.1464C80.4132 18.4414 78.9006 14.9216 76.2536 12.3281L68.5962 4.8255ZM141.862 0.75V14.4585C141.862 15.6626 141.389 16.8667 140.444 17.7004L135.528 22.5169C134.677 23.3505 133.448 23.9062 132.219 23.9062H125.412C126.83 21.6833 127.681 19.0898 127.681 16.4036V0.75H113.501V14.4585C113.501 15.6626 113.028 16.8667 112.083 17.7004L107.167 22.5169C106.316 23.3505 105.087 23.9062 103.858 23.9062H99.3204V0.75H85.14V37.8H105.843C109.625 37.8 113.217 36.318 115.864 33.7245L120.591 29.0933V37.8H134.204C137.986 37.8 141.578 36.318 144.225 33.7245L151.882 26.2219C154.529 23.6284 156.042 20.1086 156.042 16.4036V0.75H141.862ZM0.0576172 14.6437H9.51122V37.8H23.6916V14.6437H33.1452V0.75H0.0576172V14.6437Z" fill="#9CA4AE"/>
</g>
<defs>
<clipPath id="clip0">
<rect width="156" height="37.05" fill="white" transform="translate(0.0498047 0.75)"/>
</clipPath>
</defs>
</svg>
