<svg width="196" height="34" viewBox="0 0 196 34" fill="none" xmlns="http://www.w3.org/2000/svg">
<g clip-path="url(#clip0)">
<path d="M45.4947 30.0835C45.4947 31.0837 45.2716 32.1549 44.4991 32.9746H64.499V22.9354C63.1108 23.572 61.4004 23.8864 59.7479 23.8864H55.41V20.5805H57.6822C58.9216 20.5805 60.0164 20.7003 61.1939 21.2002V12.5244C60.0164 13.0234 58.9216 13.1441 57.6822 13.1441L55.41 13.1449V9.42585H59.7479C61.4004 9.42585 63.1108 9.73859 64.499 10.3761V0.750826H44.4619C45.2303 1.41928 45.4947 2.64216 45.4947 3.64278V30.0835ZM28.143 13.1441V9.83898H28.5619C29.6939 9.83898 31.0069 10.022 31.8612 10.476V0.750826H17.8233V32.9746H29.1759C28.4058 32.3061 28.143 31.0832 28.143 30.0826V20.9936H33.5138V30.0826C33.5138 31.0832 33.251 32.3061 32.4809 32.9746H43.8422V0.750826L33.5138 0.75V13.1441H28.143ZM3.40075 9.83898H5.8337V30.0826C5.8337 31.0832 5.57136 32.3061 4.80086 32.9746H16.1621V0.75L0.0498047 0.750826V10.476C0.955811 10.022 2.26917 9.83898 3.40075 9.83898ZM174.381 13.1441H162.02C161.388 13.1441 160.661 13.0833 159.934 12.8549V20.8697C160.661 20.6429 161.388 20.5805 162.02 20.5805H165.304V23.0593C164.9 23.4241 164.011 23.6257 163.107 23.6257C159.347 23.6257 156.587 20.6598 156.587 17.0689C156.587 13.4762 159.273 10.2521 163.032 10.2521C165.304 10.2521 167.866 10.9966 170.675 12.3211V0.75L162.413 0.75C153.493 0.75 146.383 7.65432 146.383 16.9875C146.383 26.1264 153.542 33.8008 162.826 33.8008C167.94 33.8008 172.708 31.7195 175.199 29.1729C174.699 28.2632 174.381 27.3543 174.381 26.2628V13.1441ZM190.299 9.42585C191.952 9.42585 193.662 9.73859 195.05 10.3761V0.750826H175.013C175.782 1.41928 176.046 2.64216 176.046 3.64278V30.0835C176.046 31.0837 175.823 32.1549 175.05 32.9746H195.05V22.9354C193.662 23.572 191.952 23.8864 190.299 23.8864H185.961V20.5805H188.233C189.473 20.5805 190.568 20.7003 191.745 21.2002V12.5244C190.568 13.0234 189.473 13.1441 188.233 13.1441L185.961 13.1449V9.42585H190.299ZM142.375 18.4322C144.094 16.5322 145.143 14.0397 145.143 11.5056C145.143 4.08318 139.616 0.752892 133.687 0.753718L120.896 0.751239C121.665 1.4168 121.925 2.63101 121.929 3.62873L121.925 30.0826C121.925 31.0783 121.661 32.1599 120.892 32.9746H133.2C132.431 32.1599 132.254 31.0262 132.254 30.0826V23.5241C135.786 24.1954 138.133 27.4728 138.133 30.0963C138.133 31.0919 137.901 32.1599 137.133 32.9746H149.407C148.639 32.1599 148.436 30.9816 148.366 29.9884C147.953 24.2987 145.999 20.2876 142.375 18.4322ZM132.254 15.2511V9.38453C133.906 9.38453 136.013 9.83898 136.013 12.3178C136.013 14.7966 133.906 15.2511 132.254 15.2511ZM87.2218 18.5148L83.9167 9.42585H88.8744L92.1795 0.75L69.0439 0.75C69.771 1.47918 70.4444 2.29678 70.9443 3.25278L83.7432 32.9746H90.7335L101.268 8.18644V30.0826C101.26 31.1089 101.004 32.3061 100.236 32.9746H120.273V22.9354C118.901 23.5728 117.174 24.2987 115.522 24.2987H111.184V20.5805H113.456C114.695 20.5805 115.79 20.7011 116.968 21.2002V12.5244C115.79 13.0238 114.695 13.1441 113.456 13.1441H111.184V9.83898H115.522C117.174 9.83898 118.901 10.1526 120.273 10.7892V0.750826L93.832 0.75L87.2218 18.5148Z" fill="#9CA4AE"/>
</g>
<defs>
<clipPath id="clip0">
<rect width="195" height="33.0508" fill="white" transform="translate(0.0498047 0.75)"/>
</clipPath>
</defs>
</svg>
