<svg width="137" height="73" viewBox="0 0 137 73" fill="none" xmlns="http://www.w3.org/2000/svg">
<g clip-path="url(#clip0)">
<path d="M70.9406 35.948C70.9406 55.4098 55.2258 71.1855 35.8397 71.1855C16.4566 71.1855 0.742188 55.4087 0.742188 35.948C0.742188 16.4845 16.4577 0.706909 35.8397 0.706909C55.2251 0.706909 70.9406 16.4838 70.9406 35.948Z" fill="#9CA4AE"/>
<path d="M93.2307 7.99219C90.479 7.99219 88.5317 9.58912 88.5317 11.9756C88.5317 14.1463 90.1405 15.0968 91.963 15.6538C93.3195 16.0668 94.1267 16.3169 94.1267 17.197C94.1267 17.9333 93.5692 18.328 92.6399 18.328C91.4082 18.328 90.3375 17.6276 89.6912 16.8569L87.9574 19.2601C88.7286 20.104 90.515 21.0913 92.8202 21.0913C95.9492 21.0913 97.6802 19.2785 97.6802 16.8569C97.6802 14.5417 96.1073 13.6079 94.0712 12.9623C93.0338 12.6387 92.0879 12.424 92.0879 11.635C92.0879 11.1329 92.4818 10.7555 93.411 10.7555C94.4818 10.7555 95.3584 11.2585 95.8743 11.85L97.5026 9.44458C96.5928 8.58373 95.142 7.99219 93.2307 7.99219ZM102.507 8.24312L97.8438 20.8398H101.489L102.06 19.0273H106.795L107.386 20.8398H111.123L106.457 8.24312H102.507ZM75.9102 8.24368V16.264C75.9102 19.3685 77.7881 21.0913 81.4497 21.0913C85.0087 21.0913 86.9921 19.3685 86.9921 16.264V8.24368H83.3998V15.2241C83.3998 16.6049 83.2556 17.9515 81.4497 17.9515C79.6467 17.9515 79.5024 16.6049 79.5024 15.2241V8.24368H75.9102ZM104.385 11.2393H104.49C104.562 11.7776 104.723 12.5323 104.92 13.1239L105.886 16.1565H102.99L103.955 13.1239C104.152 12.5323 104.313 11.7776 104.385 11.2393ZM92.8729 23.0993C88.2071 23.0993 85.9907 26.5628 85.9907 29.6667C85.9907 32.7525 88.2071 36.1976 92.8729 36.1976C97.5553 36.1976 99.7745 32.7525 99.7745 29.6667C99.7745 26.5628 97.5553 23.0993 92.8729 23.0993ZM75.9656 23.3502V26.2751H79.0558V35.9469H82.6481V26.2751H85.7383V23.3502H75.9656ZM116.826 23.3502L112.16 35.9469H115.805L116.377 34.1339H121.115L121.705 35.9469H125.439L120.773 23.3502H116.826ZM122.976 23.3502L127.658 31.4602V35.9469H131.445V31.4602L136.13 23.3502H132.305L130.607 26.4544C130.249 27.1181 129.747 28.1238 129.642 28.7866H129.57C129.464 28.1238 128.962 27.1181 128.604 26.4544L126.907 23.3502H122.976ZM101.062 23.3508V35.9469H105.689C110.049 35.9469 112.66 33.5072 112.66 29.65C112.66 25.7189 110.121 23.3508 105.689 23.3508H101.062ZM92.8562 26.2397C94.6094 26.2397 96.0713 27.4061 96.0713 29.6667C96.0713 31.9086 94.6094 33.0588 92.8562 33.0588C91.1392 33.0588 89.6745 31.9086 89.6745 29.6667C89.6745 27.4061 91.1392 26.2397 92.8562 26.2397ZM104.654 26.2575H105.422C107.727 26.2575 108.959 27.3699 108.959 29.65C108.959 31.9281 107.727 33.0393 105.422 33.0393H104.654V26.2575ZM118.701 26.3458H118.809C118.882 26.8853 119.042 27.6386 119.239 28.2324L120.205 31.2653H117.309L118.274 28.2324C118.468 27.6386 118.629 26.8853 118.701 26.3458ZM89.7633 41.0045L89.6745 41.0212V44.2547H90.2182V42.2104L92.2071 44.3159L92.2682 44.3048V41.0658H91.7245V43.0794L89.7633 41.0045ZM93.436 41.0045L93.35 41.0212V44.2547H93.8937V42.2104L95.8826 44.3159L95.9437 44.3048V41.0658H95.4V43.0794L93.436 41.0045ZM125.805 41.0045L125.717 41.0212V44.2547H126.26V42.2104L128.249 44.3159L128.31 44.3048V41.0658H127.769V43.0794L125.805 41.0045ZM84.0462 41.0101C83.1502 41.0101 82.3596 41.6701 82.3596 42.6616C82.3596 43.6447 83.1391 44.3076 84.0462 44.3076C84.5233 44.3076 84.8922 44.1822 85.2306 43.9594V42.5669H83.9685V43.0432H84.7119V43.6726C84.5233 43.7756 84.343 43.8258 84.0684 43.8258C83.4387 43.8258 82.9394 43.3412 82.9394 42.6616C82.9394 42.0266 83.3499 41.5142 84.0711 41.5142C84.3652 41.5142 84.6703 41.6117 84.9255 41.7788L85.1724 41.3443C84.8478 41.141 84.515 41.0101 84.0462 41.0101ZM109.711 41.0129C108.715 41.0129 107.999 41.7175 107.999 42.6616C107.999 43.6113 108.707 44.3076 109.711 44.3076C110.105 44.3076 110.485 44.1767 110.748 44.0068L110.585 43.5445C110.329 43.6977 109.999 43.7979 109.716 43.7979C109.017 43.7979 108.582 43.3328 108.582 42.6616C108.582 41.9876 109.006 41.5225 109.705 41.5225C109.985 41.5225 110.296 41.62 110.549 41.7648L110.737 41.3025C110.465 41.1382 110.105 41.0129 109.711 41.0129ZM112.967 41.0129C112.049 41.0129 111.345 41.7147 111.345 42.6616C111.345 43.6057 112.019 44.3076 112.937 44.3076C113.858 44.3076 114.56 43.6057 114.56 42.6616C114.56 41.7147 113.888 41.0129 112.967 41.0129ZM115.489 41.0185L115.409 41.024L115.273 44.2547H115.808L115.841 42.3413L116.851 43.8675H116.918L117.919 42.3441L117.963 44.2547H118.496L118.363 41.024L118.274 41.0185L116.898 43.1323L115.489 41.0185ZM78.7368 41.0212L77.2722 44.2547H77.8297L78.1376 43.525H79.3942L79.7021 44.2547H80.2764L78.8145 41.0212H78.7368ZM87.3139 41.0212L85.8492 44.2547H86.4068L86.7175 43.525H87.9713L88.282 44.2547H88.8507L87.3916 41.0212H87.3139ZM123.356 41.0212L121.888 44.2547H122.449L122.757 43.525H124.016L124.321 44.2547H124.895L123.434 41.0212H123.356ZM120.357 41.0435C120.096 41.0435 119.833 41.0602 119.553 41.0964V44.2547H120.094V43.2158C120.196 43.2214 120.307 43.2298 120.41 43.2298C121.223 43.2298 121.675 42.7674 121.675 42.1185C121.675 41.5198 121.231 41.0435 120.357 41.0435ZM97.0255 41.0658V44.2547H98.9645V43.7589H97.5692V42.8761H98.8286V42.3943H97.5692V41.5587H98.9645V41.0658H97.0255ZM99.7967 41.0658V41.5615H100.806V44.2547H101.35V41.5615H102.354V41.0658H99.7967ZM103.006 41.0658V41.5615H104.016V44.2547H104.56V41.5615H105.567V41.0658H103.006ZM129.073 41.0658L130.191 42.9123V44.2547H130.735V42.9151L131.853 41.0658H131.245L130.471 42.4137L129.694 41.0658H129.073ZM112.954 41.5003C113.558 41.5003 113.977 41.996 113.977 42.6616C113.977 43.3245 113.558 43.823 112.954 43.823C112.349 43.823 111.927 43.3245 111.927 42.6616C111.927 41.996 112.349 41.5003 112.954 41.5003ZM120.449 41.5448C120.893 41.5448 121.112 41.8205 121.112 42.1352C121.112 42.4973 120.887 42.7535 120.396 42.7535C120.302 42.7535 120.202 42.7452 120.094 42.7368V41.5699C120.205 41.5532 120.327 41.5448 120.449 41.5448ZM78.7673 42.0266L79.2167 43.0933H78.3152L78.7673 42.0266ZM87.3444 42.0266L87.7966 43.0933H86.8922L87.3444 42.0266ZM123.386 42.0266L123.836 43.0933H122.934L123.386 42.0266Z" fill="#9CA4AE"/>
</g>
<defs>
<clipPath id="clip0">
<rect width="136.5" height="72.15" fill="white" transform="translate(0.0996094)"/>
</clipPath>
</defs>
</svg>
